<?xml version="1.0" encoding="UTF-8"?>
<svg id="Ebene_2" xmlns="http://www.w3.org/2000/svg" viewBox="0 0 179.698229 153.446437">
  <g id="svg7671">
    <path id="path7073" d="M179.567818,76.837521c-.406396-3.396692-3.010352-14.51998-19.346582-14.956485-7.576074-.20069-16.030176,3.266245-25.833936,10.596475-1.199121-.928195-2.438403-1.89151-3.712793-2.879913-1.620581-1.254318-3.296338-2.558807-5.002222-3.883368,4.074023-4.259662,8.52937-9.994406,8.679883-15.889694.080273-3.065552-1.003467-5.875226-3.130786-8.117944-2.593945-2.739429-5.764844-4.184406-9.161548-4.184406-6.5375,0-11.966187,5.197894-15.212354,8.3086-.401392.386127-.762622.73252-1.078711,1.018506-.546899.49671-1.118848,1.018506-1.685815,1.535284-3.446875-2.904999-6.768286-5.794946-9.818799-8.614655,12.257202-14.083478,11.991284-23.847089,9.50271-29.631995C100.631074,2.847826,93.080072-.227748,87.239984.013073c-6.542529.280969-12.402686,4.425232-15.297656,10.812226-3.301367,7.285071-2.127319,15.939862,3.060547,22.587751,1.630615,2.087183,3.592358,4.319867,5.955493,6.758264-2.388208,2.58891-5.032324,5.453772-7.801856,8.444068-.597046-.436505-1.179053-.867987-1.751025-1.279407l-.456567-.33114c-2.639087-1.931647-7.545972-5.524017-12.999732-5.524017-3.226099,0-6.136108,1.269373-8.413965,3.66261-2.57887,2.709326-3.873328,5.935431-3.752918,9.327106.220764,6.065881,4.786462,10.892496,8.203235,13.998187.085107.080276.180615.160553.270947.246048-2.774561,2.88493-5.433704,5.609308-7.847022,8.022617-4.851697-3.246173-13.963062-8.253412-23.977539-8.253412-4.219519,0-8.203235.893076-11.850794,2.644101C4.194146,74.203659.451262,79.356397.034832,85.627986c-.411414,6.286641,2.859851,13.205457,7.791821,16.456648,3.346521,2.207599,7.02417,3.326451,10.93263,3.326451,11.941101,0,22.718201-10.476062,28.563318-16.19575,2.328027,1.771097,4.90188,3.803091,7.611206,5.995639-1.751025,1.690821-3.461914,3.341502-5.122632,4.936995-1.003455.968333-6.005676,6.126087-5.865198,12.708747.075037,3.517107,1.610547,6.693039,4.440283,9.196658,2.403284,2.122306,5.318298,3.241157,8.434021,3.241157,4.550659,0,9.452539-2.317979,14.565137-6.89373,1.685815-1.510198,3.461914-3.130777,5.288208-4.826614,2.814697,2.468498,5.549097,4.89184,8.092847,7.184732-1.560376,1.756046-2.834766,3.286313-3.853272,4.620906-5.604297,7.320198-5.825049,15.44316-.597046,22.286718,2.759497,3.62247,7.551001,5.779895,12.809082,5.779895,3.361572,0,6.552564-.883041,8.985938-2.488565,3.712769-2.443411,6.386987-6.467264,7.169678-10.767063.737524-4.099109-.225586-8.132996-2.784595-11.680206-.391357-.536848-1.470068-2.026978-8.168115-8.293549,2.262793-2.348082,4.741309-4.861735,7.355322-7.48075.707422.587021,1.3948,1.164007,2.052075,1.705872,4.36001,3.617452,10.882471,7.927289,17.199219,7.927289h0c3.81814,0,7.134546-1.545319,9.587988-4.465372,3.81814-4.550665,4.179395-10.069663,1.033569-15.543505-1.966772-3.406728-4.856714-6.116052-7.425562-8.313619l-1.996875-1.715906c2.664185-2.578877,5.468823-5.192876,8.328662-7.641304.582007.466606,1.15398.918161,1.69585,1.354663,8.343726,6.693039,17.229297,12.884352,25.66333,12.884352,1.45,0,2.859839-.190657,4.184399-.556918,8.469141-2.3531,14.680542-12.212037,13.56167-21.534126M18.759271,95.803006c-2.05708,0-3.938562-.576987-5.744775-1.76608-1.610547-1.063661-3.722815-4.354991-3.497046-7.766736.180627-2.729395,1.911585-4.906891,5.147717-6.467261,2.363135-1.133902,4.977136-1.710889,7.766736-1.710889,6.527466,0,12.829163,3.005344,16.94834,5.51398-5.067444,4.901874-13.205457,12.196985-20.620984,12.196985M112.105585,54.009143c.371289-.336359.797754-.747571,1.279419-1.204144,2.072119-1.981824,5.925391-5.674536,8.674854-5.674536.531836,0,1.27439.135266,2.30293,1.224213.426465.446539.501733.787714.491699,1.214178-.075439,2.854828-3.788037,7.164661-6.753247,10.205127-2.187524-1.720923-4.385107-3.476971-6.567603-5.243048.190649-.170587.386133-.351209.571973-.521796M107.469648,97.468735l-.295825.295818c-.687354.687366-1.379736,1.369715-2.062085,2.047047-2.393237-1.996874-4.936987-4.129215-7.56604-6.341831,2.373169-2.338048,4.736304-4.671079,7.054297-6.974007,2.568848,2.182513,5.067432,4.31987,7.450659,6.3619-.18584.185439-.376099.381313-.556909.566951-1.414868,1.429923-2.759497,2.789603-4.023853,4.04392M83.141083,81.267771c2.393237-2.29791,4.776441-4.580768,7.129541-6.828507,2.333032,1.936667,4.676099,3.903436,7.009131,5.860172-2.333032,2.307944-4.696167,4.645993-7.069336,6.984041-2.343066-1.986839-4.711206-3.998766-7.069336-6.015709M83.346991,94.001601c-2.348071,2.287875-4.671069,4.525578-6.938892,6.688022-2.378174-2.042029-4.766406-4.069006-7.129541-6.050829,2.282861-2.212616,4.605859-4.450319,6.938892-6.703075,2.373169,2.026978,4.761401,4.058972,7.129541,6.065881M75.85622,75.011231c-2.714356-2.343066-5.363452-4.65101-7.872095-6.863626,2.087183-2.212616,4.184399-4.450321,6.256543-6.672971,2.734399,2.137357,5.619336,4.440283,8.589575,6.853592-2.30293,2.202582-4.635962,4.435266-6.973999,6.683005M97.249872,67.806427c2.468506-2.333029,4.871777-4.590802,7.169678-6.728162,2.252759,1.831305,4.525586,3.652573,6.78335,5.443738-2.282861,2.247736-4.65603,4.595819-7.104468,7.019162-2.272827-1.911581-4.560693-3.833194-6.848584-5.734741M80.582465,14.829064c1.419897-3.135791,4.063989-5.087512,7.064331-5.217963.090308-.003998.185449-.003998.280957-.003998,2.608984,0,5.895288,1.500171,7.124536,4.365033,1.886499,4.370038-.893091,11.268787-7.641309,19.125836-1.966772-2.052063-3.622461-3.938562-4.952051-5.63941-3.015381-3.858289-3.712793-8.579535-1.876465-12.628473M87.767206,46.875396h0l.040161-.045361c2.889941,2.659155,5.98562,5.373499,9.191651,8.092859-2.312964,2.162445-4.711206,4.420215-7.184717,6.758264-3.110718-2.533722-6.146167-4.972113-9.031079-7.239923,2.468506-2.669189,4.831641-5.227997,6.984033-7.566046M60.332806,61.31991c-3.286304-2.990295-4.987158-5.413635-5.052393-7.19978-.008008-.306256-.040161-1.10882,1.103809-2.317981.566943-.592041,1.018506-.712451,1.565381-.712451,2.373169,0,5.789917,2.498602,7.430567,3.69773l.496704.366461c.236011.165369.476636.346393.712451.521796-1.901538,2.037012-3.828174,4.089075-5.739746,6.111035-.170581-.155737-.345996-.311072-.516772-.466608M54.276971,82.382614c2.227661-2.247736,4.625928-4.716235,7.109473-7.300128,2.413306,2.127322,4.947022,4.339938,7.556006,6.592694-2.388232,2.302927-4.751343,4.585785-7.07937,6.838541-2.684229-2.177495-5.248071-4.219525-7.606177-6.040793l.065039-.060208-.044971-.028094v-.002011ZM65.089178,111.206837c-4.520557,4.04392-7.290088,4.480423-8.268457,4.480423-.827856,0-1.500171-.266116-2.17749-.867988-1.038574-.913143-1.184082-1.640648-1.194116-2.167461-.040161-1.740993,1.475073-4.1543,2.920044-5.549101,1.931641-1.85639,3.93855-3.798074,5.99563-5.779895,2.322998,1.941684,4.681104,3.938557,7.039234,5.9555-1.485107,1.374732-2.930078,2.689257-4.314844,3.928523M98.825312,134.185943c1.008472,1.399818,1.374731,2.799635,1.103809,4.274715-.30625,1.700855-1.485107,3.446866-3.005347,4.450321-.883032.582004-2.30293.928195-3.798071.928195-2.267798,0-4.344971-.802762-5.288208-2.042029-2.548779-3.336487-2.358106-6.683005.587036-10.536269.883032-1.148955,1.996875-2.488567,3.381641-4.048938,4.696167,4.390112,6.622803,6.432141,7.019165,6.974007M91.294428,113.745583l-.028076-.024083-.016089.016055c-2.388232-2.157426-4.947022-4.43025-7.591138-6.753246,2.30293-2.197565,4.651025-4.470388,7.024194-6.78335,2.649121,2.227669,5.207935,4.370043,7.631275,6.39702-2.483545,2.493584-4.84668,4.891839-7.019165,7.149611M121.991084,101.380018c1.279395,1.098782,3.948584,3.38164,5.353418,5.820034,1.389795,2.413307.762622,3.502055-.065039,4.490457-.642212.762625-1.324561,1.073696-2.343066,1.073696-2.654126,0-6.833521-2.147392-11.173462-5.744775-.411426-.346392-.837891-.697401-1.27439-1.063662.446533-.44152.898096-.888057,1.344629-1.334594l.301025-.29622c1.279419-1.269369,2.644092-2.654136,4.079028-4.104127.361255-.366462.737549-.747574,1.113843-1.123869l2.66416,2.282858-.000146.000201ZM118.845258,86.087375c-2.373169-2.031995-4.861743-4.159317-7.425562-6.341831,2.548779-2.528705,5.002222-4.947028,7.360327-7.270026,2.092212,1.630612,4.144263,3.221088,6.116065,4.751355.637183.49671,1.26936.983386,1.891504,1.465042-2.749463,2.423343-5.413648,4.936993-7.942334,7.395456M163.488936,89.107769c-.506738.140485-1.063672.215543-1.665747.215543-6.211377,0-15.498364-7.39044-19.612525-10.686788,6.808447-4.751355,12.638501-7.154627,17.384839-7.154627.12041,0,.246045.004001.371289.004001,4.299805.115598,9.547876,1.339612,10.17002,6.512418.551904,4.605856-2.679224,10.009454-6.647876,11.108237"/>
  </g>
</svg>