<?xml version="1.0" encoding="UTF-8"?>
<svg id="Ebene_2" xmlns="http://www.w3.org/2000/svg" viewBox="0 0 48.265808 50.33843">
  <defs>
    <style>
      .cls-1 {
        fill: #fbb600;
      }

      .cls-2 {
        fill: #878988;
      }

      .cls-3 {
        fill: #0089cf;
      }

      .cls-4 {
        fill: #5bbdea;
      }

      .cls-5 {
        fill: #00a344;
      }
    </style>
  </defs>
  <g id="Ebene_1-2" data-name="Ebene_1">
    <g>
      <circle class="cls-1" cx="14.136658" cy="4.648761" r="4.648767"/>
      <path class="cls-2" d="M38.079834,17.635546l-1.399567-4.812223-2.154785,1.018822-4.497375-.265408-3.77536,4.570265-.474792,2.80224-7.384277,1.503462-4.469482-6.891239-3.377075-.158739-6.039093,5.89887L.164795,23.565203l-.02066.000751c-.094238.86665-.144135,1.746605-.144135,2.638329,0,.957161.057526,1.900761.165894,2.828819,9.947693-3.376606,20.34787-5.085358,31.009003-5.085358,5.780396,0,11.483948.50317,17.080505,1.501038-.03363-1.093609-.141693-2.168335-.316162-3.220631l-4.30014-1.147108-5.559265-3.445498Z"/>
      <path class="cls-4" d="M24.134155,2.070138c-1.547638,0-3.060486.147781-4.52713.426162.263458.667129.409821,1.392807.409821,2.15246,0,3.242352-2.637817,5.880201-5.880188,5.880201-2.233002,0-4.179077-1.251265-5.174438-3.089357C4.396484,11.135839,1.203827,16.461367.277313,22.534433l3.719391-1.938509,6.216095-6.0718,4.193848.196981,4.390625,6.769775,6.22934-1.268476.414642-2.446758,4.20108-5.085209,4.713837.278156,2.869598-1.356504,1.589539,5.464981,5.169159,3.20402,3.781769,1.008766c-2.269745-10.972218-11.987274-19.219718-23.63208-19.219718Z"/>
      <path class="cls-5" d="M11.235474,32.522882c9.77533,1.323284,18.70517,4.52998,25.144562,9.029381,1.318512.921219,2.513397,1.887398,3.569092,2.880558,5.048859-4.384827,8.258789-10.831966,8.316681-18.030758-5.598633-1.009125-11.305817-1.518478-17.090912-1.518478-10.619781,0-20.977386,1.712437-30.880402,5.095039.101166.644115.231659,1.278294.382721,1.904427.366516-.006283.733582-.009621,1.100647-.009621,3.094025,0,6.276062.21851,9.457611.649452Z"/>
      <path class="cls-3" d="M11.086792,33.621164c-3.158203-.427788-6.282074-.639439-9.308929-.639439-.27002,0-.538483.003323-.806885.006733.141876.485195.299744.963264.470764,1.435272,8.430267,1.507805,16.039459,4.713913,21.638672,9.150288,2.480804,1.965717,4.451324,4.082203,5.881592,6.281246,3.769775-.765469,7.219482-2.410561,10.127747-4.710423-.984375-.916637-2.099243-1.81406-3.344482-2.684078-6.297119-4.399994-15.054474-7.539513-24.658478-8.8396Z"/>
      <path class="cls-5" d="M22.392151,44.442698c-5.308624-4.206154-12.488617-7.279877-20.470367-8.802547,3.674133,8.638306,12.232971,14.69828,22.212372,14.69828,1.236053,0,2.450317-.093185,3.636322-.272427-1.350311-1.972961-3.15332-3.860283-5.378326-5.623306Z"/>
    </g>
  </g>
</svg>